<svg xmlns="http://www.w3.org/2000/svg" width="256" height="256" viewBox="0 0 100 100"><rect width="100" height="100" rx="0" fill="#1864ab"></rect><path fill="#fff" d="M42.57 46.84L42.57 53.74L14.84 53.74L14.84 76.41L47.06 76.41L47.06 83.31L6.41 83.31L6.41 19.33L46.62 19.33L46.62 26.27L14.84 26.27L14.84 46.84L42.57 46.84ZM53.47 59.76L53.47 59.14Q53.47 48.20 58.66 41.54Q63.84 34.88 72.24 34.88L72.24 34.88Q80.59 34.88 85.46 40.60L85.46 40.60L85.46 15.81L93.59 15.81L93.59 83.31L86.12 83.31L85.73 78.21Q80.85 84.19 72.15 84.19L72.15 84.19Q63.89 84.19 58.68 77.42Q53.47 70.65 53.47 59.76L53.47 59.76ZM61.60 60.06L61.60 60.06Q61.60 68.15 64.94 72.72Q68.28 77.29 74.17 77.29L74.17 77.29Q81.90 77.29 85.46 70.35L85.46 70.35L85.46 48.51Q81.82 41.78 74.26 41.78L74.26 41.78Q68.28 41.78 64.94 46.40Q61.60 51.01 61.60 60.06Z"></path></svg>